<?xml version="1.0" encoding="iso-8859-1"?>
<!-- Generator: Adobe Illustrator 19.0.0, SVG Export Plug-In . SVG Version: 6.00 Build 0)  -->
<svg version="1.1" id="Laag_1" fill="#b4b4b4" xmlns="http://www.w3.org/2000/svg" xmlns:xlink="http://www.w3.org/1999/xlink" x="0px" y="0px"
	 viewBox="0 0 384 292.5" style="enable-background:new 0 0 384 292.5;" xml:space="preserve">
<g>
	<path d="M350.25,0H33.75C15.164,0,0,15.148,0,33.75v225c0,18.539,15.098,33.75,33.75,33.75h316.5
		c18.539,0,33.75-15.098,33.75-33.75v-225C384,15.211,368.902,0,350.25,0L350.25,0z M345.59,22.5L192.715,175.375L38.52,22.5H345.59
		z M22.5,254.09V38.301L130.859,145.73L22.5,254.09z M38.41,270l108.426-108.426l37.992,37.664
		c4.399,4.36,11.496,4.348,15.879-0.035l37.043-37.043L345.59,270H38.41z M361.5,254.09L253.66,146.25L361.5,38.41V254.09z
		 M361.5,254.09"/>
</g>
</svg>
