<?xml version="1.0" encoding="iso-8859-1"?>
<!-- Generator: Adobe Illustrator 19.0.0, SVG Export Plug-In . SVG Version: 6.00 Build 0)  -->
<svg version="1.1" id="Laag_1" fill="#b4b4b4" xmlns="http://www.w3.org/2000/svg" xmlns:xlink="http://www.w3.org/1999/xlink" x="0px" y="0px"
	 viewBox="0 0 354.684 355.354" style="enable-background:new 0 0 354.684 355.354;" xml:space="preserve">
<g>
	<g>
		<path d="M280.586,220.128c-7.278-7.574-16.051-11.625-25.352-11.625c-9.226,0-18.074,3.976-25.648,11.551l-23.703,23.625
			c-1.95-1.051-3.899-2.024-5.774-3c-2.699-1.352-5.25-2.625-7.426-3.977c-22.199-14.098-42.375-32.473-61.722-56.25
			c-9.375-11.848-15.676-21.824-20.25-31.949c6.148-5.625,11.847-11.473,17.398-17.098c2.102-2.101,4.199-4.277,6.301-6.375
			c15.75-15.75,15.75-36.152,0-51.902l-20.477-20.473c-2.324-2.328-4.722-4.726-6.972-7.125c-4.5-4.652-9.227-9.453-14.102-13.953
			c-7.273-7.199-15.976-11.023-25.125-11.023c-9.148,0-18,3.824-25.5,11.023c-0.074,0.078-0.074,0.078-0.148,0.152l-25.5,25.723
			C6.985,67.054,1.508,78.753,0.309,92.327c-1.8,21.902,4.653,42.301,9.602,55.652c12.148,32.774,30.301,63.149,57.375,95.7
			c32.848,39.226,72.375,70.199,117.523,92.023c17.25,8.176,40.278,17.852,66,19.5c1.575,0.078,3.227,0.152,4.727,0.152
			c17.324,0,31.875-6.226,43.273-18.601c0.075-0.149,0.227-0.223,0.301-0.375c3.899-4.723,8.399-9,13.125-13.574
			c3.227-3.075,6.524-6.301,9.75-9.676c7.426-7.723,11.324-16.723,11.324-25.949c0-9.301-3.972-18.227-11.55-25.727L280.586,220.128
			z M307.434,299.104C307.359,299.104,307.359,299.179,307.434,299.104c-2.925,3.149-5.925,6-9.148,9.149
			c-4.875,4.652-9.824,9.527-14.477,15c-7.574,8.101-16.5,11.926-28.199,11.926c-1.125,0-2.324,0-3.449-0.075
			c-22.277-1.425-42.977-10.125-58.5-17.55c-42.449-20.551-79.727-49.727-110.699-86.7c-25.578-30.824-42.676-59.324-54-89.925
			c-6.977-18.676-9.528-33.227-8.403-46.95c0.75-8.777,4.125-16.05,10.352-22.277l25.574-25.574
			c3.676-3.449,7.574-5.324,11.399-5.324c4.726,0,8.55,2.851,10.953,5.25c0.074,0.074,0.148,0.148,0.222,0.226
			c4.575,4.274,8.926,8.699,13.5,13.422c2.325,2.402,4.727,4.801,7.125,7.277l20.477,20.473c7.949,7.953,7.949,15.301,0,23.25
			c-2.176,2.176-4.277,4.352-6.449,6.453c-6.301,6.449-12.301,12.449-18.828,18.297c-0.149,0.152-0.297,0.227-0.375,0.375
			c-6.45,6.453-5.25,12.75-3.899,17.027c0.074,0.223,0.149,0.45,0.227,0.676c5.324,12.899,12.824,25.047,24.222,39.524l0.075,0.074
			c20.703,25.5,42.527,45.375,66.601,60.601c3.074,1.95,6.227,3.524,9.227,5.024c2.699,1.351,5.25,2.625,7.422,3.976
			c0.3,0.149,0.601,0.375,0.902,0.524c2.551,1.277,4.949,1.875,7.426,1.875c6.222,0,10.125-3.899,11.398-5.176l25.649-25.648
			c2.55-2.551,6.601-5.625,11.328-5.625c4.648,0,8.472,2.925,10.797,5.476c0.078,0.074,0.078,0.074,0.152,0.149l41.324,41.324
			C315.086,283.28,315.086,291.155,307.434,299.104L307.434,299.104z M307.434,299.104"/>
		<path d="M191.786,84.53c19.648,3.297,37.5,12.598,51.75,26.848c14.25,14.25,23.473,32.101,26.848,51.75
			c0.828,4.949,5.101,8.402,9.976,8.402c0.602,0,1.125-0.078,1.727-0.152c5.547-0.899,9.222-6.149,8.324-11.699
			c-4.051-23.774-15.301-45.45-32.477-62.625c-17.175-17.176-38.847-28.426-62.625-32.477c-5.55-0.898-10.722,2.777-11.699,8.25
			C182.634,78.304,186.235,83.628,191.786,84.53L191.786,84.53z M191.786,84.53"/>
		<path d="M354.684,156.753c-6.675-39.149-25.125-74.774-53.472-103.125C272.859,25.28,237.235,6.827,198.087,0.155
			c-5.477-0.976-10.653,2.774-11.625,8.25c-0.903,5.547,2.773,10.723,8.324,11.699c34.949,5.926,66.824,22.5,92.176,47.774
			c25.347,25.351,41.847,57.226,47.773,92.176c0.824,4.949,5.102,8.398,9.977,8.398c0.597,0,1.125-0.074,1.722-0.148
			C351.91,167.479,355.66,162.229,354.684,156.753L354.684,156.753z M354.684,156.753"/>
	</g>
</g>
</svg>
